<svg width="50" height="50" viewBox="0 0 50 50" fill="none" xmlns="http://www.w3.org/2000/svg">
<path d="M0 8C0 3.58172 3.58172 0 8 0H42C46.4183 0 50 3.58172 50 8V42C50 46.4183 46.4183 50 42 50H8C3.58172 50 0 46.4183 0 42V8Z" fill="#E7ECF4"/>
<path d="M33.4531 12.9322C33.592 12.9174 33.7425 12.9167 33.9023 12.9312C34.6208 12.9964 35.5256 13.3536 36.3896 13.9634C36.5816 14.099 36.7631 14.2408 36.9316 14.3863C37.0162 14.4593 37.0976 14.5333 37.1758 14.608C37.4099 14.8314 37.6146 15.0612 37.7861 15.2896C37.8433 15.3657 37.8967 15.4416 37.9463 15.5171C38.3926 16.1972 38.5265 16.8439 38.2354 17.2564C38.2334 17.2592 38.2305 17.2614 38.2285 17.2642C37.9971 17.5921 37.7096 18 37.4541 18.3619L25.083 35.8863C24.8253 36.2514 24.5342 36.6634 24.3018 36.9927C24.1399 37.2219 23.8657 37.3514 23.5186 37.3882C23.38 37.403 23.2297 37.4027 23.0703 37.3882C22.3517 37.3231 21.4464 36.9662 20.582 36.356C19.0458 35.2714 18.2198 33.7974 18.7373 33.064L32.6709 13.3277C32.8327 13.0986 33.1062 12.9691 33.4531 12.9322Z" fill="#FCFDFF"/>
<path d="M37.5381 21.8101C37.8335 22.7418 37.9941 23.7338 37.9941 24.7632C37.9939 30.0423 33.8033 34.3395 28.5674 34.5171L37.5381 21.8101Z" fill="#FCFDFF"/>
<path d="M28.2305 14.9996C28.4398 14.9996 28.6475 15.0081 28.8535 15.0211L18.3926 29.8394H13V19.6861H19.8896C21.6037 16.876 24.698 14.9997 28.2305 14.9996Z" fill="#FCFDFF"/>
</svg>
