<svg width="160" height="160" viewBox="0 0 160 160" fill="none" xmlns="http://www.w3.org/2000/svg">
<path d="M0 16C0 7.16345 7.16344 0 16 0H144C152.837 0 160 7.16344 160 16V144C160 152.837 152.837 160 144 160H16C7.16345 160 0 152.837 0 144V16Z" fill="#E7ECF4"/>
<path d="M91.0088 61.6294C91.8102 60.4953 94.3866 60.9357 96.7637 62.6137C97.2094 62.9284 97.6165 63.2643 97.9785 63.6098C98.6825 64.2817 99.2148 64.9907 99.5303 65.6508C99.5378 65.6665 99.5455 65.6821 99.5527 65.6977C99.9204 66.4904 99.971 67.21 99.6191 67.7085C99.6147 67.7147 99.609 67.7199 99.6045 67.726C99.247 68.2324 98.804 68.8614 98.4102 69.4194L79.2686 96.5337C78.8698 97.0985 78.4193 97.7361 78.0596 98.2456C77.2581 99.3796 74.6817 98.9383 72.3047 97.2602C69.9277 95.582 68.6496 93.3022 69.4502 92.1674L91.0088 61.6294Z" fill="#FCFDFF"/>
<path d="M98.1094 74.8735C98.5562 76.2826 98.7987 77.7833 98.7988 79.3403C98.7988 87.3252 92.4599 93.8289 84.54 94.0962L98.1094 74.8735Z" fill="#FCFDFF"/>
<path d="M84.0332 64.5756C84.3498 64.5756 84.664 64.5863 84.9756 64.6059L69.1553 87.019H61V71.6626H71.4199C74.0123 67.4132 78.6914 64.5758 84.0332 64.5756Z" fill="#FCFDFF"/>
</svg>
