<svg width="60" height="60" viewBox="0 0 60 60" fill="none" xmlns="http://www.w3.org/2000/svg">
<path d="M60 30C60 46.5685 46.5685 60 30 60C13.4315 60 0 46.5685 0 30C0 13.4315 13.4315 0 30 0C46.5685 0 60 13.4315 60 30Z" fill="#CDD8E7"/>
<path d="M42.8986 41.0461C42.8986 47.0076 37.1237 47.0635 30 47.0635C22.8764 47.0635 17.1015 47.0076 17.1015 41.0461C17.1015 35.0847 22.8764 30.2519 30 30.2519C37.1237 30.2519 42.8986 35.0847 42.8986 41.0461Z" fill="#FCFDFF"/>
<path d="M38.1306 20.8044C38.1306 25.2508 34.5261 28.8552 30.0798 28.8552C25.6335 28.8552 22.029 25.2508 22.029 20.8044C22.029 16.3581 25.6335 12.7537 30.0798 12.7537C34.5261 12.7537 38.1306 16.3581 38.1306 20.8044Z" fill="#FCFDFF"/>
</svg>
