<svg width="60" height="60" viewBox="0 0 60 60" fill="none" xmlns="http://www.w3.org/2000/svg">
<path d="M0 8C0 3.58172 3.58172 0 8 0H52C56.4183 0 60 3.58172 60 8V52C60 56.4183 56.4183 60 52 60H8C3.58172 60 0 56.4183 0 52V8Z" fill="#E7ECF4"/>
<path d="M38.4531 17.9321C38.592 17.9174 38.7426 17.9167 38.9023 17.9312C39.6208 17.9964 40.5256 18.3535 41.3896 18.9634C41.5816 19.0989 41.7631 19.2408 41.9316 19.3862C42.164 19.5868 42.3715 19.7959 42.5537 20.0054C42.6363 20.1003 42.7147 20.1945 42.7861 20.2896C42.8433 20.3656 42.8967 20.4416 42.9463 20.5171C43.3926 21.1971 43.5265 21.8439 43.2354 22.2564C43.2334 22.2592 43.2305 22.2614 43.2285 22.2642C42.9971 22.592 42.7096 23 42.4541 23.3618L30.083 40.8862C29.8253 41.2513 29.5342 41.6634 29.3018 41.9927C29.1399 42.2219 28.8657 42.3513 28.5186 42.3882C28.38 42.4029 28.2298 42.4026 28.0703 42.3882C27.3517 42.3231 26.4464 41.9662 25.582 41.356C24.0458 40.2713 23.2198 38.7973 23.7373 38.064L37.6709 18.3276C37.8327 18.0986 38.1062 17.9691 38.4531 17.9321Z" fill="#FCFDFF"/>
<path d="M42.5381 26.8101C42.8335 27.7418 42.9941 28.7338 42.9941 29.7632C42.9939 35.0422 38.8033 39.3395 33.5674 39.5171L42.5381 26.8101Z" fill="#FCFDFF"/>
<path d="M33.2305 19.9995C33.4398 19.9995 33.6475 20.008 33.8535 20.021L23.3926 34.8394H18V24.686H24.8896C26.6037 21.876 29.698 19.9997 33.2305 19.9995Z" fill="#FCFDFF"/>
</svg>
