<svg width="160" height="160" viewBox="0 0 160 160" fill="none" xmlns="http://www.w3.org/2000/svg">
<path d="M0 16C0 7.16345 7.16344 0 16 0H144C152.837 0 160 7.16344 160 16V144C160 152.837 152.837 160 144 160H16C7.16345 160 0 152.837 0 144V16Z" fill="#E7ECF4"/>
<path d="M96.7633 63.0389C99.1406 64.7171 100.419 66.9974 99.6178 68.1321C99.258 68.6417 98.8086 69.2791 98.4098 69.844L79.2682 96.9581C78.8694 97.5229 78.4194 98.1605 78.0597 98.67C77.2585 99.8045 74.682 99.3637 72.3047 97.6855C69.9275 96.0072 68.6495 93.7269 69.4503 92.5922L91.0083 62.0543C91.8095 60.9199 94.386 61.3607 96.7633 63.0389Z" fill="#E7ECF4"/>
<path d="M99.6187 68.1331C98.8177 69.2677 96.2408 68.8269 93.8631 67.1483C91.4854 65.4698 90.2073 63.189 91.0083 62.0543C91.8095 60.9199 94.386 61.3607 96.7633 63.0389C99.141 64.7174 100.42 66.9984 99.6187 68.1331Z" fill="#FCFDFF"/>
<path d="M98.1094 75.2988C98.5563 76.7081 98.7988 78.2085 98.7988 79.7656C98.7988 87.7505 92.4599 94.2543 84.54 94.5215L98.1094 75.2988Z" fill="#FCFDFF"/>
<path d="M84.0332 65.001C84.3498 65.001 84.664 65.0116 84.9756 65.0312L69.1553 87.4443H61V72.0879H71.4199C74.0122 67.8384 78.6912 65.0011 84.0332 65.001Z" fill="#FCFDFF"/>
<path d="M96.7633 63.0389C99.1406 64.7171 100.419 66.9974 99.6178 68.1321C99.258 68.6417 98.8086 69.2791 98.4098 69.844L79.2682 96.9581C78.8694 97.5229 78.4194 98.1605 78.0597 98.67C77.2585 99.8045 74.682 99.3637 72.3047 97.6855C69.9275 96.0072 68.6495 93.7269 69.4503 92.5922L91.0083 62.0543C91.8095 60.9199 94.386 61.3607 96.7633 63.0389Z" fill="#E7ECF4"/>
</svg>
