<svg width="207" height="47" viewBox="0 0 207 47" fill="none" xmlns="http://www.w3.org/2000/svg">
<path d="M206.049 0.624573V45.8442H197.929L178.068 17.1135H177.693V45.8442H168.324V0.624573H176.569L196.306 29.3553H196.743V0.624573H206.049Z" fill="#4897FF"/>
<path d="M161.579 23.2344C161.579 37.9745 152.398 46.4688 140.468 46.4688C128.414 46.4688 119.295 37.912 119.295 23.2344C119.295 8.49429 128.414 0 140.468 0C152.398 0 161.579 8.49429 161.579 23.2344ZM152.023 23.2344C152.023 13.5534 147.463 8.30691 140.468 8.30691C133.473 8.30691 128.851 13.5534 128.851 23.2344C128.851 32.9154 133.473 38.1618 140.468 38.1618C147.463 38.1618 152.023 32.9154 152.023 23.2344Z" fill="#4897FF"/>
<path d="M79.3217 8.36936V0.624573H116.359V8.36936H102.494V45.8442H93.1873V8.36936H79.3217Z" fill="#4897FF"/>
<path d="M48.2801 45.8442H38.1619L53.8388 0.624573H65.8932L81.5077 45.8442H71.452L68.0792 35.4137H51.7153L48.2801 45.8442ZM54.0887 28.1061H65.7058L60.0222 10.8052H59.7099L54.0887 28.1061Z" fill="#4897FF"/>
<path d="M0 45.8442V0.624573H17.9879C27.9812 0.624573 32.9778 5.43384 32.9778 12.2418C32.9778 17.5507 29.5426 20.861 24.8583 21.9228V22.36C29.9798 22.6098 34.7891 26.6696 34.7891 33.3526C34.7891 40.5352 29.4177 45.8442 19.1746 45.8442H0ZM17.3009 38.0994C22.7347 38.0994 25.0457 35.8509 25.0457 32.4782C25.0457 28.6682 22.1726 25.9825 17.5507 25.9825H9.3687V38.0994H17.3009ZM16.6138 19.5493C20.5487 19.5493 23.4842 17.3633 23.4842 13.7408C23.4842 10.4929 21.1108 8.24445 16.8012 8.24445H9.3687V19.5493H16.6138Z" fill="#4897FF"/>
</svg>
