<svg width="521" height="126" viewBox="0 0 521 126" fill="none" xmlns="http://www.w3.org/2000/svg">
<path d="M103.055 64.7626C103.88 65.0742 104.715 65.3744 105.25 65.6687C106.228 66.2079 106.198 66.7122 106.097 67.1712C106.007 67.5845 105.903 67.9909 105.669 68.2411C105.938 68.2178 106.198 68.2081 106.454 68.2126C107.081 68.2235 107.669 68.3169 108.427 68.4943C111.344 69.2311 114.524 69.9103 117.091 68.8489C117.833 68.5421 118.579 68.1208 119.259 67.0686C121.243 63.9955 123.062 60.818 122.721 56.9658C122.641 56.0636 122.257 55.0505 120.021 56.3755C118.828 57.0826 117.717 57.7454 116.702 58.3549C117.426 57.6093 118.123 56.7009 118.824 55.4501C120.372 54.5736 121.912 53.3758 122.778 51.2975C123.784 48.8818 124.882 45.1158 122.175 38.296C122.147 38.2255 122.119 38.1543 122.09 38.0824C122.042 37.7254 121.989 37.358 121.93 36.9797C121.343 33.2054 120.269 27.9573 119.214 24.2302C118.159 20.5032 117.153 18.3621 116.486 17.0598C115.818 15.7575 115.426 15.3199 115.657 16.4549C116.338 19.8065 117.171 23.4413 117.471 27.0477C116.984 24.6134 115.938 22.9891 114.821 21.5339C113.526 19.8466 111.516 18.8092 109.468 18.1055M103.055 64.7626C101.805 66.5609 101.274 67.5107 101.285 67.2805C101.291 67.1497 101.339 65.798 101.392 64.0628M103.055 64.7626C102.455 64.5361 101.86 64.3035 101.392 64.0628M103.055 64.7626C103.871 63.5886 104.992 62.0529 106.469 60.2479C107.755 58.6759 109.483 56.8573 111.115 55.2302C111.123 53.9847 111.133 52.6508 111.14 51.2543M101.392 64.0628C101.324 64.0283 101.26 63.9936 101.198 63.9588C100.949 63.818 100.751 63.6753 100.593 63.5307M101.392 64.0628C101.522 59.7816 101.683 53.1663 101.325 56.7959C101.234 57.7197 100.905 60.8454 100.593 63.5307M100.593 63.5307C100.251 66.4743 99.9304 68.8888 99.9683 67.2933C99.9904 66.3647 100.335 64.9072 100.548 63.4882M100.593 63.5307C100.577 63.5165 100.562 63.5024 100.548 63.4882M100.548 63.4882C100.059 63.0172 99.982 62.5265 99.9368 62.0178C99.815 60.648 99.9265 59.5034 100.03 59.5845C100.862 60.2365 100.795 61.8362 100.548 63.4882ZM111.14 51.2543C108.228 56.5765 106.282 60.4563 106.48 60.0209C107.231 58.3669 111.155 44.1545 111.15 48.1731C111.149 49.2258 111.145 50.256 111.14 51.2543ZM111.14 51.2543C111.193 51.1575 111.246 51.0604 111.3 50.9627C111.399 49.233 111.559 46.8872 111.704 43.5144C111.905 38.8274 112.121 31.0123 112.104 26.6779C112.087 22.3436 111.962 21.4569 111.474 20.6248C111.04 19.8862 110.33 19.0212 109.468 18.1055M109.468 18.1055C108.561 17.794 107.647 17.5479 106.785 17.3398C105.964 17.5123 105.143 17.7564 104.858 18.1731C104.165 19.1859 104.562 20.1314 105.363 20.9302M109.468 18.1055C109.136 17.7527 108.781 17.3924 108.412 17.0289C108.43 17.0247 108.447 17.0204 108.464 17.0161C109.477 17.3186 110.406 17.6004 111.195 17.8438C115.024 19.0256 115.319 19.239 115.382 19.1976C115.686 19.0002 114.072 17.7312 110.055 15.1602C107.124 13.2846 102.097 10.7147 100.684 9.87512C97.8268 8.17805 103.506 12.3518 107.786 16.4243C106.847 16.1902 105.425 15.9375 104.209 15.7674C101.324 14.936 98.39 14.1215 96.3655 13.6196C92.5126 12.6643 91.9705 12.8358 91.835 13.099C91.6995 13.3622 91.9627 13.7067 94.8667 15.3215C97.5446 16.8106 102.329 19.3076 105.363 20.9302M105.363 20.9302C105.619 21.0672 105.863 21.198 106.092 21.3215C109.031 22.9064 109.714 23.4 109.599 23.3539C109.462 23.2985 106.78 22.344 105.363 20.9302ZM127.33 83.6106C127.308 83.455 127.247 83.1565 127.061 82.7467C126.083 80.5869 124.887 78.1739 122.94 75.8925C124.42 78.2678 125.838 80.5483 126.571 81.9046C127.117 82.9154 127.283 83.4066 127.33 83.6106ZM127.33 83.6106C127.348 83.6892 127.348 83.7251 127.345 83.7317C127.342 83.7402 127.342 83.6979 127.33 83.6106ZM104.211 104.915C104.342 104.917 104.473 104.921 104.603 104.927C105.024 104.947 104.893 105.371 104.414 105.939C101.876 108.949 99.3827 109.851 98.6248 110.743C98.0747 111.391 100.687 111.904 104.327 111.992C110.933 112.153 115.996 111.31 117.707 110.782C120.598 109.889 122.528 106.863 125.354 101.3C125.99 100.049 126.452 98.7023 126.785 97.3065C127.746 96.8931 127.941 96.7402 128.124 96.568L128.139 96.5531C128.411 96.2974 128.708 96.0176 128.761 95.5678C128.876 94.5903 128.993 93.0009 127.615 89.0054C127.624 87.9495 127.611 86.9153 127.595 85.9214C127.561 83.6697 127.371 81.897 127.282 83.5314C127.208 84.8977 127.147 86.2484 127.09 87.5499C126.911 91.7149 126.786 95.3766 126.47 97.4396C126.012 97.6307 125.414 97.8698 124.625 98.1759C121.705 99.3082 116.178 101.351 111.624 102.8C108.393 103.829 105.936 104.502 104.211 104.915ZM104.211 104.915C101.726 105.512 100.758 105.57 101.176 105.381C101.882 105.062 103.045 104.9 104.211 104.915ZM157.955 108.965C157.997 108.645 158.039 108.324 162.366 93.9128C166.693 79.5012 175.303 51.008 180.54 34.4354C185.777 17.8628 187.379 14.0743 192.395 11.8538C197.41 9.63329 205.79 9.09563 210.506 8.74621C216.02 8.2519 217.566 8.10263 218.964 8.0814C219.638 8.06018 220.242 8.01773 220.864 7.974M220.964 7.974C220.997 8.00682 221.029 8.03965 223.946 19.4612C226.863 30.8828 232.663 53.692 236.173 69.5964C239.684 85.5008 240.728 93.8091 241.426 98.6531C242.444 104.625 242.96 107.292 243.338 109.97C243.53 111.143 243.723 111.939 243.921 112.759M158.527 113.589C161.17 113.589 172.008 114.055 177.821 113.731C179.059 113.662 180.204 110.418 183.46 100.271C185.991 92.3877 189.474 78.6974 191.912 71.5235C194.351 64.3495 195.426 64.0416 198.247 63.6543C201.067 63.2671 205.599 62.8098 210.368 62.3386C210.368 62.4648 210.368 62.591 211.284 69.0593C212.199 75.5276 214.03 88.3341 215.011 95.22C216.073 102.682 216.293 103.744 216.709 104.908C216.96 105.612 217.35 106.524 218.903 106.551C220.456 106.578 223.176 105.686 226.747 104.738C230.317 103.79 234.656 102.813 239.327 101.705M201.798 29.3004C201.27 30.4636 200.407 37.7877 199.626 44.5877C199.5 45.6853 199.385 46.5643 199.617 47.1725C199.85 47.7807 200.41 48.0886 201.445 48.1963C202.481 48.3039 203.974 48.2021 204.81 47.72C205.756 41.5274 205.07 31.0044 203.414 27.8106C202.125 27.0872 199.928 28.1857 197.663 29.3176M263.153 9.53625C263.153 10.3122 263.153 18.2363 270.465 28.5209C277.776 31.2811 292.4 29.0491 304.728 27.8297C317.056 26.6103 326.645 26.4711 338.102 26.1236M259.782 10.1033C260.257 10.1033 260.731 10.1033 272.726 9.8648C284.72 9.62631 308.22 9.14934 320.914 8.82717C337.005 8.41878 340.078 7.83148 341.756 8.37236C342.373 8.91323 342.511 9.99499 342.582 12.0442C342.653 14.0935 342.653 17.0775 342.394 22.1332M290.173 33.1084C290.41 34.5667 290.344 49.1731 289.343 75.7064C288.443 99.5545 286.21 111.603 288.128 112.608C299.707 111.648 312.564 109.012 313.353 107.323C313.621 106.447 313.621 105.532 313.621 104.589M310.336 24.4326C310.402 24.4326 310.468 24.4326 310.649 33.6572C310.831 42.8818 311.125 61.331 311.135 72.2262C310.862 85.9033 310.571 90.1412 310.528 95.2615C310.485 99.0102 310.4 105.095 310.108 111.363M391.858 10.7395C389.367 11.2621 381.505 17.3805 370.036 33.5579C363.87 42.2557 363.267 52.3527 362.181 61.6216C360.756 73.7879 362.039 84.1447 363.439 89.8509C364.468 94.0458 367.519 96.6188 370.871 98.5915C378.933 103.336 392.045 101.016 399 99.3902C404.82 98.0301 408.988 94.7942 411.249 92.6575C416.998 87.2237 419.161 73.262 419.86 50.5939C420.232 38.516 415.257 34.3744 412.032 30.3462C407.466 26.4663 404.025 24.6277 401.244 23.5951C399.872 23.1593 398.58 22.9025 396.229 22.638M388.604 46.4696C386.489 50.925 383.74 61.8297 384.581 67.4959C384.988 70.2344 392.278 67.0672 397.53 65.1468C400.566 64.0364 401.828 61.8421 402.857 59.3903C403.962 56.7595 403.665 53.4071 403.287 50.3894C400.957 46.5094 397.097 44.1807 393.425 42.8253C391.791 42.2857 390.62 42.0472 387.972 41.8015M450.123 12.9734C450.189 12.9734 450.256 12.9734 449.401 27.843C448.547 42.7126 446.77 72.4518 445.646 88.4669C444.522 104.482 444.105 105.872 443.856 107.135C443.607 108.398 443.54 109.492 442.858 110.212M450.694 15.8088C450.694 15.7415 450.694 15.6742 454.131 15.2686C457.568 14.8631 464.442 14.1214 471.524 13.3572M482.769 14.6158C482.907 16.4804 483.045 18.3449 483.476 20.8049C483.906 23.2648 484.625 26.2636 486.889 33.0455C489.152 39.8273 492.938 50.3014 496.839 61.0928M497.04 21.8462V64.4816M497.04 10.2347C497.173 10.1674 497.307 10.1001 499.037 9.8931C500.767 9.68611 504.09 9.3415 507.403 9.16398C510.715 8.98645 513.917 8.98645 517.216 8.98645M517.818 8.78247C517.818 9.39067 517.818 9.99888 517.588 21.8076C517.359 33.6163 516.9 56.607 516.228 70.7118C515.556 84.8166 514.684 89.3388 513.786 94.3991M513.378 96.2109C513.311 96.2109 513.243 96.2109 510.206 96.4905C507.168 96.7701 501.163 97.3292 494.975 97.9053M479.418 76.6153C479.284 76.0767 478.066 69.853 476.131 60.2582C475.344 56.6096 474.953 55.4388 474.572 54.1311C474.19 52.8233 473.831 51.4141 473.256 49.3501C473.256 49.4163 473.256 49.4825 472.92 57.3604C472.584 65.2384 471.912 80.9262 471.202 91.0731C470.492 101.22 469.764 105.351 469.014 109.807M468.605 109.807C468.471 109.807 468.336 109.807 463.457 109.162C458.577 108.517 448.956 107.226 443.372 106.518C437.788 105.811 436.532 105.725 435.237 105.637M70.4178 59.1233C67.1812 70.6556 63.7545 82.9451 61.4215 91.4591C57.2772 106.583 56.8143 108.974 60.2567 96.6286C62.6412 88.0771 66.9061 72.4203 70.4178 59.1233ZM70.4178 59.1233C71.976 53.2233 73.3859 47.7878 74.4174 43.6438C76.3841 35.7426 76.8988 32.8186 76.3205 33.3242M76.3205 33.3242C75.4587 36.2609 74.304 39.9611 72.5611 45.187C69.1581 57.1507 65.0173 71.8663 62.3341 81.6915C61.9781 82.9949 61.646 84.2247 61.3361 85.3852M76.3205 33.3242C77.4283 29.5494 78.0522 27.0362 78.8193 24.1658C79.5005 21.6169 79.8693 19.775 76.5663 31.1986C76.2831 32.1783 75.9726 33.2559 75.639 34.4164C75.1389 35.3939 74.4438 36.9616 73.5847 38.9857C72.8194 40.7889 71.9253 42.9528 70.9411 45.3974C71.8635 41.4683 72.6987 37.862 73.3734 34.8878C76.2618 22.1562 76.2118 21.0433 76.0793 21.5699C75.9469 22.0966 75.7383 24.1992 72.2407 39.3506C71.7718 41.3817 71.2475 43.6323 70.6835 46.0385C67.4382 54.1315 63.2785 65.1104 59.5276 76.2375C54.5214 91.0884 50.4172 105.761 48.2051 113.992C45.993 122.222 45.7973 123.565 45.8702 123.488C45.9431 123.412 46.2905 121.875 51.2749 107.22C55.185 95.7239 61.9421 76.1842 67.1137 61.1463C66.1297 65.288 65.1252 69.5029 64.1536 73.5762C63.1612 77.7366 62.2031 81.7493 61.3361 85.3852M61.3361 85.3852C60.4762 88.9916 59.706 92.2274 59.0808 94.8692C57.879 99.9476 57.2197 102.839 56.8753 104.409M61.3361 85.3852C58.0679 97.6236 57.2631 102.171 56.8753 104.409M56.8753 104.409C56.8077 104.799 56.7528 105.119 56.6998 105.397C56.5671 106.093 56.3383 106.857 56.8753 104.409ZM48.4287 103.832C48.4934 103.832 49.2687 101.661 51.914 92.4479C53.9272 85.4358 56.8593 73.5562 58.9204 65.9046C60.9815 58.2531 61.9693 55.158 63.2701 50.8669C66.2015 41.1963 67.8605 35.1124 68.0431 34.0942C68.8501 29.5935 71.2382 22.57 72.1973 19.9576C72.5033 18.892 72.8625 17.773 73.2787 16.5798C73.4551 16.0266 73.561 15.5795 73.6702 15.1189M86.9345 19.1968C86.9345 19.2615 84.2648 26.7548 80.076 38.352C78.5788 42.4971 78.2692 43.0772 77.2837 45.9384C77.0133 46.7232 76.6912 47.6777 76.3275 48.7575M76.3275 48.7575C75.3652 51.6144 74.1121 55.3487 72.7588 59.1393C70.8941 64.3625 68.89 69.5374 67.3896 73.6773C64.8358 80.7236 63.8723 84.3731 63.3362 86.4873C61.272 94.6279 60.0195 99.0601 59.7091 100.494C58.835 104.531 63.1285 90.7954 66.2049 82.0094C68.5995 75.1702 72.0998 63.2993 74.2007 56.2023C75.1568 52.9725 75.77 50.7954 76.3275 48.7575ZM76.3275 48.7575C76.995 46.3173 77.5827 44.0767 78.5833 40.4672C80.4072 33.888 83.5901 22.8213 86.8775 11.3909L86.9446 11.1575M77.8917 14.7692C77.8259 14.8996 75.6235 20.8832 71.8132 31.8365C70.0727 36.8401 69.1224 40.8515 66.4652 47.8442C63.8388 54.7558 59.6725 64.4947 56.5079 71.2294M56.5079 71.2294C56.4708 71.3084 56.4339 71.3869 56.397 71.4651C53.2194 78.2066 51.2259 81.5035 48.9792 85.7562C44.0891 95.0126 41.3616 101.648 40.8532 103.051C40.7976 103.205 41.0133 102.155 44.8736 93.1764C48.734 84.1981 56.1968 67.3057 62.4323 51.8203C68.6677 36.3349 73.4497 22.7684 75.8953 16.0647C78.3409 9.36106 78.3052 9.93135 73.3474 23.9792C69.2872 35.4836 61.9267 56.0153 56.5079 71.2294ZM56.5079 71.2294C55.3099 74.5932 54.2067 77.697 53.2551 80.3858C48.0686 95.0414 47.6764 96.5574 47.4261 97.5248L47.4162 97.5631C47.0073 99.066 50.3863 92.4227 57.2971 79.1475C60.6658 73.0669 63.7536 68.3183 67.1579 62.8482M58.4799 2.5H97.3782V22.5H46.3782L58.4799 2.5ZM55.4291 52.5H97.3782V72.5H42.3782L55.4291 52.5ZM27.9714 97.5H97.3782V117.5H6.3782L27.9714 97.5ZM67.4984 47.7635C68.4196 44.7327 69.337 41.5755 70.2078 38.45C69.2861 41.1505 68.4381 43.69 67.8327 45.7503C67.0396 48.4498 66.6741 50.2715 67.4984 47.7635ZM74.419 41.0274C71.534 49.5206 66.6156 63.8304 62.4635 76.2252C62.312 76.7664 62.2432 77.0617 62.2739 77.0622C62.5432 77.0668 70.2472 54.9971 74.176 43.2456C78.1049 31.494 78.254 30.1027 78.2576 29.7648C78.2612 29.4269 78.1235 30.1214 74.419 41.0274Z" stroke="#4998FF" stroke-width="5" stroke-linecap="round"/>
</svg>
