<svg width="24" height="24" viewBox="0 0 24 24" fill="none" xmlns="http://www.w3.org/2000/svg">
<path d="M19.0999 21.8996L15.5999 18.4496C15.0166 18.6329 14.4249 18.7706 13.8249 18.8626C13.2249 18.9546 12.6166 19.0003 11.9999 18.9996C9.76658 18.9996 7.72492 18.3996 5.87492 17.1996C4.02492 15.9996 2.57492 14.4163 1.52492 12.4496C1.44158 12.2996 1.37925 12.1456 1.33792 11.9876C1.29658 11.8296 1.27558 11.6669 1.27492 11.4996C1.27425 11.3323 1.29525 11.1696 1.33792 11.0116C1.38058 10.8536 1.44292 10.6996 1.52492 10.5496C1.89158 9.89961 2.28325 9.26628 2.69992 8.64961C3.11658 8.03294 3.59992 7.48294 4.14992 6.99961L2.07492 4.89961C1.89158 4.71628 1.79992 4.48728 1.79992 4.21261C1.79992 3.93794 1.89992 3.70028 2.09992 3.49961C2.28325 3.31628 2.51658 3.22461 2.79992 3.22461C3.08325 3.22461 3.31658 3.31628 3.49992 3.49961L20.4999 20.4996C20.6833 20.6829 20.7793 20.9123 20.7879 21.1876C20.7966 21.4629 20.7006 21.7003 20.4999 21.8996C20.3166 22.0829 20.0833 22.1746 19.7999 22.1746C19.5166 22.1746 19.2833 22.0829 19.0999 21.8996ZM11.9999 15.9996C12.1833 15.9996 12.3583 15.9913 12.5249 15.9746C12.6916 15.9579 12.8583 15.9246 13.0249 15.8746L7.62492 10.4746C7.57492 10.6413 7.54158 10.8079 7.52492 10.9746C7.50825 11.1413 7.49992 11.3163 7.49992 11.4996C7.49992 12.7496 7.93758 13.8123 8.81292 14.6876C9.68825 15.5629 10.7506 16.0003 11.9999 15.9996ZM11.9999 3.99961C14.2333 3.99961 16.2793 4.60394 18.1379 5.81261C19.9966 7.02128 21.4506 8.60861 22.4999 10.5746C22.5833 10.7079 22.6459 10.8539 22.6879 11.0126C22.7299 11.1713 22.7506 11.3336 22.7499 11.4996C22.7493 11.6656 22.7326 11.8283 22.6999 11.9876C22.6673 12.1469 22.6089 12.2926 22.5249 12.4246C22.2083 13.0413 21.8542 13.6246 21.4629 14.1746C21.0716 14.7246 20.6339 15.2413 20.1499 15.7246C19.9166 15.9579 19.6416 16.0663 19.3249 16.0496C19.0083 16.0329 18.7333 15.9079 18.4999 15.6746L16.4999 13.6746C16.3833 13.5579 16.3083 13.4203 16.2749 13.2616C16.2416 13.1029 16.2499 12.9406 16.2999 12.7746C16.3666 12.5579 16.4166 12.3496 16.4499 12.1496C16.4833 11.9496 16.4999 11.7329 16.4999 11.4996C16.4999 10.2496 16.0626 9.18728 15.1879 8.31261C14.3133 7.43794 13.2506 7.00028 11.9999 6.99961C11.7666 6.99961 11.5499 7.01628 11.3499 7.04961C11.1499 7.08294 10.9416 7.13294 10.7249 7.19961C10.5583 7.24961 10.3916 7.25794 10.2249 7.22461C10.0583 7.19128 9.91658 7.11628 9.79992 6.99961L8.97492 6.17461C8.65825 5.85794 8.55425 5.49128 8.66292 5.07461C8.77158 4.65794 9.03392 4.39128 9.44992 4.27461C9.86658 4.19128 10.2876 4.12461 10.7129 4.07461C11.1383 4.02461 11.5673 3.99961 11.9999 3.99961ZM13.9749 9.64961C14.1583 9.86628 14.3123 10.1039 14.4369 10.3626C14.5616 10.6213 14.6409 10.8919 14.6749 11.1746C14.6916 11.3079 14.6416 11.3996 14.5249 11.4496C14.4083 11.4996 14.2999 11.4746 14.1999 11.3746L12.1499 9.32461C12.0499 9.22461 12.0293 9.11628 12.0879 8.99961C12.1466 8.88294 12.2423 8.82461 12.3749 8.82461C12.6916 8.85794 12.9833 8.94561 13.2499 9.08761C13.5166 9.22961 13.7583 9.41694 13.9749 9.64961Z" fill="#4897FF"/>
</svg>
