<svg width="24" height="24" viewBox="0 0 24 24" fill="none" xmlns="http://www.w3.org/2000/svg">
<path d="M19.5 10.925L18.1 12.3C17.9167 12.4833 17.6877 12.5793 17.413 12.588C17.1383 12.5967 16.9007 12.5007 16.7 12.3C16.5167 12.1167 16.425 11.8833 16.425 11.6C16.425 11.3167 16.5167 11.0833 16.7 10.9L18.075 9.5L16.7 8.125C16.5167 7.94167 16.425 7.71267 16.425 7.438C16.425 7.16333 16.5167 6.92567 16.7 6.725C16.9 6.525 17.1377 6.425 17.413 6.425C17.6883 6.425 17.9257 6.525 18.125 6.725L19.5 8.1L20.875 6.7C21.0583 6.5 21.2873 6.4 21.562 6.4C21.8367 6.4 22.0743 6.5 22.275 6.7C22.4757 6.9 22.5757 7.13767 22.575 7.413C22.5743 7.68833 22.4743 7.92567 22.275 8.125L20.9 9.5L22.3 10.9C22.5 11.1 22.5957 11.3333 22.587 11.6C22.5783 11.8667 22.4743 12.1 22.275 12.3C22.075 12.4833 21.8417 12.5793 21.575 12.588C21.3083 12.5967 21.075 12.5007 20.875 12.3L19.5 10.925ZM6.175 10.825C5.39167 10.0417 5 9.1 5 8C5 6.9 5.39167 5.95833 6.175 5.175C6.95833 4.39167 7.9 4 9 4C10.1 4 11.0417 4.39167 11.825 5.175C12.6083 5.95833 13 6.9 13 8C13 9.1 12.6083 10.0417 11.825 10.825C11.0417 11.6083 10.1 12 9 12C7.9 12 6.95833 11.6083 6.175 10.825ZM1 18V17.2C1 16.6333 1.146 16.1127 1.438 15.638C1.73 15.1633 2.11733 14.8007 2.6 14.55C3.63333 14.0333 4.68333 13.646 5.75 13.388C6.81667 13.13 7.9 13.0007 9 13C10.1 12.9993 11.1833 13.1287 12.25 13.388C13.3167 13.6473 14.3667 14.0347 15.4 14.55C15.8833 14.8 16.271 15.1627 16.563 15.638C16.855 16.1133 17.0007 16.634 17 17.2V18C17 18.55 16.8043 19.021 16.413 19.413C16.0217 19.805 15.5507 20.0007 15 20H3C2.45 20 1.97933 19.8043 1.588 19.413C1.19667 19.0217 1.00067 18.5507 1 18Z" fill="#4897FF"/>
</svg>
