<svg width="30" height="30" viewBox="0 0 30 30" fill="none" xmlns="http://www.w3.org/2000/svg">
<rect width="30" height="30" rx="15" fill="#4897FF"/>
<path d="M14.11 17.1413C13.87 16.9013 13.75 16.6042 13.75 16.25V7.5C13.75 7.14584 13.87 6.84917 14.11 6.61C14.35 6.37084 14.6467 6.25084 15 6.25C15.3533 6.24917 15.6504 6.36917 15.8913 6.61C16.1321 6.85084 16.2517 7.1475 16.25 7.5V16.25C16.25 16.6042 16.13 16.9013 15.89 17.1413C15.65 17.3813 15.3533 17.5008 15 17.5C14.6467 17.4992 14.35 17.3792 14.11 17.14M14.11 23.39C13.87 23.1517 13.75 22.855 13.75 22.5C13.75 22.145 13.87 21.8483 14.11 21.61C14.35 21.3717 14.6467 21.2517 15 21.25C15.3533 21.2483 15.6504 21.3683 15.8913 21.61C16.1321 21.8517 16.2517 22.1483 16.25 22.5C16.2483 22.8517 16.1283 23.1488 15.89 23.3913C15.6517 23.6338 15.355 23.7533 15 23.75C14.645 23.7467 14.3483 23.6267 14.11 23.39Z" fill="#FCFDFF"/>
</svg>
