<svg width="24" height="24" viewBox="0 0 24 24" fill="none" xmlns="http://www.w3.org/2000/svg">
<path d="M13 12.175V9C13 8.71667 12.904 8.47933 12.712 8.288C12.52 8.09667 12.2827 8.00067 12 8C11.7173 7.99933 11.48 8.09533 11.288 8.288C11.096 8.48067 11 8.718 11 9V12.575C11 12.7083 11.025 12.8377 11.075 12.963C11.125 13.0883 11.2 13.2007 11.3 13.3L13.825 15.825C14.025 16.025 14.2627 16.125 14.538 16.125C14.8133 16.125 15.0507 16.025 15.25 15.825C15.4333 15.625 15.525 15.3877 15.525 15.113C15.525 14.8383 15.4333 14.609 15.25 14.425L13 12.175ZM12.712 5.713C12.904 5.521 13 5.28333 13 5C13 4.71667 12.904 4.47933 12.712 4.288C12.52 4.09667 12.2827 4.00067 12 4C11.7173 3.99933 11.48 4.09533 11.288 4.288C11.096 4.48067 11 4.718 11 5C11 5.282 11.096 5.51967 11.288 5.713C11.48 5.90633 11.7173 6.002 12 6C12.2827 5.998 12.5203 5.902 12.713 5.712M18.288 12.712C18.4793 12.904 18.7167 13 19 13C19.2833 13 19.521 12.904 19.713 12.712C19.905 12.52 20.0007 12.2827 20 12C19.9993 11.7173 19.9033 11.48 19.712 11.288C19.5207 11.096 19.2833 11 19 11C18.7167 11 18.4793 11.096 18.288 11.288C18.0967 11.48 18.0007 11.7173 18 12C17.9993 12.2827 18.0953 12.5203 18.288 12.713M11.288 18.288C11.096 18.4793 11 18.7167 11 19C11 19.2833 11.096 19.521 11.288 19.713C11.48 19.905 11.7173 20.0007 12 20C12.2827 19.9993 12.5203 19.9033 12.713 19.712C12.9057 19.5207 13.0013 19.2833 13 19C12.9987 18.7167 12.9027 18.4793 12.712 18.288C12.5213 18.0967 12.284 18.0007 12 18C11.716 17.9993 11.4787 18.0953 11.288 18.288ZM5.712 11.288C5.52133 11.096 5.284 11 5 11C4.716 11 4.47867 11.096 4.288 11.288C4.09733 11.48 4.00133 11.7173 4 12C3.99867 12.2827 4.09467 12.5203 4.288 12.713C4.48133 12.9057 4.71867 13.0013 5 13C5.28133 12.9987 5.519 12.9027 5.713 12.712C5.907 12.5213 6.00267 12.284 6 12C5.99733 11.716 5.90133 11.4787 5.712 11.288ZM12 22C10.6167 22 9.31667 21.7373 8.1 21.212C6.88334 20.6867 5.825 19.9743 4.925 19.075C4.025 18.1757 3.31267 17.1173 2.788 15.9C2.26333 14.6827 2.00067 13.3827 2 12C1.99933 10.6173 2.262 9.31733 2.788 8.1C3.314 6.88267 4.02633 5.82433 4.925 4.925C5.82367 4.02567 6.882 3.31333 8.1 2.788C9.318 2.26267 10.618 2 12 2C13.382 2 14.682 2.26267 15.9 2.788C17.118 3.31333 18.1763 4.02567 19.075 4.925C19.9737 5.82433 20.6863 6.88267 21.213 8.1C21.7397 9.31733 22.002 10.6173 22 12C21.998 13.3827 21.7353 14.6827 21.212 15.9C20.6887 17.1173 19.9763 18.1757 19.075 19.075C18.1737 19.9743 17.1153 20.687 15.9 21.213C14.6847 21.739 13.3847 22.0013 12 22Z" fill="#4897FF"/>
</svg>
